<?xml version="1.0" standalone="no"?>
<!DOCTYPE svg PUBLIC "-//W3C//DTD SVG 20010904//EN"
 "http://www.w3.org/TR/2001/REC-SVG-20010904/DTD/svg10.dtd">
<svg version="1.0" xmlns="http://www.w3.org/2000/svg"
 width="1024.000000pt" height="1024.000000pt" viewBox="0 0 1024.000000 1024.000000"
 preserveAspectRatio="xMidYMid meet">
<metadata>
Created by potrace 1.14, written by Peter Selinger 2001-2017
</metadata>
<g transform="translate(0.000000,1024.000000) scale(0.100000,-0.100000)"
fill="#000000" stroke="none">
<path d="M1010 10225 c-328 -52 -625 -243 -810 -523 -102 -153 -168 -328 -190
-504 -7 -55 -10 -1397 -10 -4083 0 -3421 2 -4014 14 -4095 40 -263 159 -493
349 -677 190 -184 403 -290 657 -329 145 -21 8058 -21 8200 1 267 41 489 155
676 346 141 145 229 292 289 481 58 184 55 -77 55 4278 0 4355 3 4094 -55
4278 -121 382 -426 683 -805 794 -174 50 43 48 -4270 47 -3293 -1 -4030 -3
-4100 -14z m8021 -389 c173 -143 299 -359 338 -583 6 -32 12 -130 15 -218 5
-155 5 -158 -10 -105 -47 176 -170 327 -325 399 -256 120 -546 55 -725 -161
-94 -113 -139 -254 -131 -408 6 -123 34 -209 98 -305 223 -333 705 -356 965
-45 39 47 114 195 114 226 0 9 3 14 8 10 4 -4 7 -1606 8 -3559 0 -2772 -2
-3540 -12 -3498 -6 29 -30 90 -52 135 -68 137 -191 244 -342 297 -93 33 -274
34 -375 2 -174 -55 -332 -211 -386 -382 -29 -91 -36 -236 -15 -323 50 -213
196 -369 416 -444 77 -27 263 -27 340 0 109 37 173 77 252 156 83 82 132 168
162 280 14 53 15 50 10 -105 -2 -88 -9 -186 -15 -218 -40 -230 -177 -461 -352
-596 l-54 -41 -3969 2 -3969 3 -70 23 c-162 55 -303 148 -407 270 -66 76 -150
235 -176 332 -16 61 -17 301 -17 4145 l0 4080 23 75 c95 304 336 528 642 596
43 9 931 12 4001 13 l3945 1 65 -54z m-157 -808 c26 -8 60 -31 91 -63 56 -56
75 -102 75 -184 0 -65 -17 -107 -67 -161 -51 -58 -102 -80 -183 -80 -147 0
-249 102 -250 248 0 76 19 124 68 176 68 71 164 94 266 64z m513 -360 c-3 -7
-5 -2 -5 12 0 14 2 19 5 13 2 -7 2 -19 0 -25z m-499 -6983 c49 -21 110 -80
133 -130 22 -46 25 -129 7 -189 -16 -55 -99 -138 -154 -154 -57 -17 -137 -15
-182 3 -49 21 -110 80 -133 130 -25 53 -25 156 0 210 23 52 74 103 126 126 50
23 152 25 203 4z"/>
<path d="M1350 9383 c-116 -19 -229 -80 -321 -172 -110 -110 -165 -228 -176
-377 -21 -294 176 -562 463 -630 98 -23 236 -15 333 19 176 62 314 203 372
379 34 103 34 282 0 378 -88 249 -322 414 -580 409 -36 -1 -77 -4 -91 -6z
m198 -358 c49 -21 110 -80 133 -130 25 -53 25 -156 0 -210 -41 -91 -126 -144
-229 -145 -76 0 -124 19 -176 68 -71 68 -94 164 -64 266 15 51 99 137 148 153
52 16 146 15 188 -2z"/>
<path d="M3103 8695 c-139 -30 -164 -51 -585 -473 -374 -374 -388 -390 -423
-464 -23 -50 -39 -105 -46 -155 -6 -49 -9 -286 -7 -643 4 -553 4 -566 26 -631
27 -82 88 -175 150 -230 57 -50 167 -105 241 -119 31 -6 224 -10 450 -10 431
0 459 3 571 58 75 36 179 142 219 220 52 103 61 161 61 414 0 133 4 238 10
254 13 33 183 210 222 230 40 21 2216 21 2256 0 39 -20 209 -197 222 -230 6
-17 10 -145 10 -333 0 -340 -2 -350 -68 -401 l-35 -27 -521 -5 c-512 -5 -522
-6 -586 -28 -36 -13 -90 -39 -120 -59 -72 -47 -1096 -1069 -1144 -1143 -19
-30 -46 -82 -58 -115 -22 -59 -23 -70 -26 -567 -3 -484 -2 -510 16 -551 11
-25 37 -57 58 -73 l37 -29 906 -3 c587 -1 924 1 960 8 144 26 295 139 360 268
55 109 61 154 61 500 0 243 3 320 14 345 18 42 204 224 236 231 14 3 180 7
370 9 390 4 419 9 536 86 76 50 782 759 818 822 14 25 36 72 48 105 23 59 23
60 26 824 2 499 -1 789 -8 835 -6 45 -25 100 -51 155 -41 83 -51 94 -408 451
-201 201 -391 382 -421 402 -30 20 -84 46 -120 59 l-65 23 -2065 2 c-1709 1
-2076 -1 -2127 -12z m4154 -345 c37 -14 731 -706 749 -747 12 -27 14 -160 14
-775 0 -705 -1 -745 -19 -783 -12 -26 -137 -158 -367 -387 -293 -291 -355
-348 -389 -357 -25 -7 -164 -11 -365 -11 -351 0 -380 -4 -489 -56 -84 -41
-308 -264 -354 -353 -59 -112 -60 -118 -66 -497 l-6 -351 -29 -37 c-52 -69
-11 -66 -881 -66 l-785 0 0 370 c0 296 3 377 14 403 18 41 1052 1073 1089
1087 18 6 200 10 510 10 530 0 553 2 669 61 79 40 173 134 216 216 55 104 62
161 62 508 0 461 -9 488 -229 705 -100 100 -151 143 -193 163 -124 59 -71 57
-1288 57 -1225 0 -1165 3 -1293 -61 -86 -44 -312 -268 -355 -354 -51 -103 -54
-124 -61 -407 -7 -296 -6 -295 -81 -346 l-34 -23 -400 3 -401 3 -34 24 c-18
13 -42 42 -52 65 -17 38 -19 76 -19 598 0 364 4 566 10 585 14 35 705 730 745
749 25 11 368 13 2057 14 1388 0 2036 -3 2055 -10z"/>
<path d="M4359 3070 c-116 -18 -235 -83 -310 -169 -51 -59 -104 -170 -118
-245 -17 -94 -14 -804 4 -889 40 -190 202 -352 392 -392 100 -21 1486 -21
1586 0 190 40 352 202 392 392 18 85 21 795 4 889 -33 182 -174 339 -359 400
-51 17 -110 19 -795 20 -407 1 -765 -2 -796 -6z m1522 -363 c27 -15 53 -38 67
-63 22 -39 22 -40 20 -435 l-3 -396 -27 -35 c-54 -71 -15 -68 -818 -68 -803 0
-764 -3 -818 68 l-27 35 -3 396 c-2 395 -2 396 20 435 14 25 40 48 67 63 l44
23 717 0 717 0 44 -23z"/>
<path d="M1308 2035 c-119 -29 -241 -106 -324 -205 -51 -62 -110 -191 -125
-274 -51 -295 120 -577 411 -678 73 -25 199 -34 286 -19 83 15 212 74 274 125
102 86 176 205 206 334 22 91 14 233 -17 327 -45 136 -157 267 -288 339 -111
60 -293 82 -423 51z m247 -354 c52 -23 103 -74 126 -126 25 -53 25 -157 0
-210 -21 -46 -88 -111 -137 -131 -41 -17 -123 -18 -178 -2 -55 16 -138 99
-154 154 -17 57 -15 137 3 182 21 49 80 110 130 133 53 25 156 25 210 0z"/>
</g>
</svg>
